<?xml version="1.0" encoding="UTF-8" standalone="no"?><svg xmlns="http://www.w3.org/2000/svg" xmlns:xlink="http://www.w3.org/1999/xlink" fill="#000000" height="81.6" preserveAspectRatio="xMidYMid meet" version="1" viewBox="0.0 0.0 109.3 81.6" width="109.3" zoomAndPan="magnify"><g id="change1_1"><path d="M0.8,59H25c0.3,0,0.6-0.3,0.6-0.6c0-0.2-0.1-0.3-0.2-0.4l-12-15.6l-0.1-0.1c-0.1-0.1-0.3-0.2-0.4-0.2 c-0.1,0-0.3,0.1-0.4,0.2l-0.1,0.1l-0.1,0.1L0.5,57.9l-0.2,0.2c-0.1,0.1-0.1,0.2-0.1,0.3C0.2,58.7,0.5,59,0.8,59z M24.9,61.2H0.6 c-0.3,0-0.6,0.3-0.6,0.6v19c0,0.3,0.3,0.6,0.6,0.6h7.8V69.5c0-0.3,0.3-0.6,0.6-0.6h7.2c0.3,0,0.6,0.3,0.6,0.6v11.9h8 c0.3,0,0.6-0.3,0.6-0.6v-19C25.5,61.5,25.3,61.2,24.9,61.2L24.9,61.2z M108.7,56.2h-24c-0.3,0-0.6,0.3-0.6,0.6V81 c0,0.3,0.3,0.6,0.6,0.6h24c0.3,0,0.6-0.3,0.6-0.6V56.8C109.3,56.5,109.1,56.2,108.7,56.2 M95.6,72.1c0,0.3-0.3,0.6-0.6,0.6h-7.2 c-0.3,0-0.6-0.3-0.6-0.6v-4.4c0-0.3,0.3-0.6,0.6-0.6H95c0.3,0,0.6,0.3,0.6,0.6V72.1z M95.6,64c0,0.3-0.3,0.6-0.6,0.6h-7.2 c-0.3,0-0.6-0.3-0.6-0.6v-4.4c0-0.3,0.3-0.6,0.6-0.6H95c0.3,0,0.6,0.3,0.6,0.6V64z M106.6,72.1c0,0.3-0.3,0.6-0.6,0.6h-7.2 c-0.3,0-0.6-0.3-0.6-0.6v-4.4c0-0.3,0.3-0.6,0.6-0.6h7.2c0.3,0,0.6,0.3,0.6,0.6V72.1z M106.6,64c0,0.3-0.3,0.6-0.6,0.6h-7.2 c-0.3,0-0.6-0.3-0.6-0.6v-4.4c0-0.3,0.3-0.6,0.6-0.6h7.2c0.3,0,0.6,0.3,0.6,0.6V64z M52.9,0H29.5c-0.3,0-0.6,0.3-0.6,0.6v80.3 c0,0.3,0.3,0.6,0.6,0.6H53c0.3,0,0.6-0.3,0.6-0.6V0.6C53.5,0.2,53.3,0,52.9,0 M39,72.3c0,0.2-0.1,0.3-0.3,0.3h-5.4 c-0.2,0-0.3-0.1-0.3-0.3v-6c0-0.2,0.1-0.3,0.3-0.3h5.4c0.2,0,0.3,0.1,0.3,0.3V72.3z M39,58.5c0,0.2-0.1,0.3-0.3,0.3h-5.4 c-0.2,0-0.3-0.1-0.3-0.3v-6c0-0.2,0.1-0.3,0.3-0.3h5.4c0.2,0,0.3,0.1,0.3,0.3V58.5z M39,44.7c0,0.2-0.1,0.3-0.3,0.3h-5.4 c-0.2,0-0.3-0.1-0.3-0.3v-6c0-0.2,0.1-0.3,0.3-0.3h5.4c0.2,0,0.3,0.1,0.3,0.3V44.7z M39,31c0,0.2-0.1,0.3-0.3,0.3h-5.4 c-0.2,0-0.3-0.1-0.3-0.3v-6c0-0.2,0.1-0.3,0.3-0.3h5.4c0.2,0,0.3,0.1,0.3,0.3V31z M39,17.2c0,0.2-0.1,0.3-0.3,0.3h-5.4 c-0.2,0-0.3-0.1-0.3-0.3v-6c0-0.2,0.1-0.3,0.3-0.3h5.4c0.2,0,0.3,0.1,0.3,0.3V17.2z M49.5,72.3c0,0.2-0.1,0.3-0.3,0.3h-5.4 c-0.2,0-0.3-0.1-0.3-0.3v-6c0-0.2,0.1-0.3,0.3-0.3h5.4c0.2,0,0.3,0.1,0.3,0.3V72.3z M49.5,58.5c0,0.2-0.1,0.3-0.3,0.3h-5.4 c-0.2,0-0.3-0.1-0.3-0.3v-6c0-0.2,0.1-0.3,0.3-0.3h5.4c0.2,0,0.3,0.1,0.3,0.3V58.5z M49.5,44.7c0,0.2-0.1,0.3-0.3,0.3h-5.4 c-0.2,0-0.3-0.1-0.3-0.3v-6c0-0.2,0.1-0.3,0.3-0.3h5.4c0.2,0,0.3,0.1,0.3,0.3V44.7z M49.5,31c0,0.2-0.1,0.3-0.3,0.3h-5.4 c-0.2,0-0.3-0.1-0.3-0.3v-6c0-0.2,0.1-0.3,0.3-0.3h5.4c0.2,0,0.3,0.1,0.3,0.3V31z M49.5,17.2c0,0.2-0.1,0.3-0.3,0.3h-5.4 c-0.2,0-0.3-0.1-0.3-0.3v-6c0-0.2,0.1-0.3,0.3-0.3h5.4c0.2,0,0.3,0.1,0.3,0.3V17.2z M109.3,53.8c0,0.3-0.2,0.5-0.5,0.5H84.6 c-0.3,0-0.5-0.2-0.5-0.5V49c0-0.3,0.2-0.5,0.5-0.5h24.2c0.3,0,0.5,0.2,0.5,0.5V53.8z M81.3,15.1c-0.1-0.3-0.3-0.4-0.6-0.4 c-0.1,0-0.2,0-0.3,0.1L80.2,15L57.1,44.3L57,44.4c-0.1,0.1-0.2,0.3-0.2,0.5v36c0,0.3,0.3,0.6,0.6,0.6h23.5c0.3,0,0.6-0.3,0.6-0.6 V15.3C81.4,15.3,81.4,15.2,81.3,15.1z M71.6,31l0.2-0.2c1.6-2,4.2-5.3,5.5-6.9l0.2-0.2c0.1-0.1,0.3-0.2,0.5-0.2 c0.3,0,0.6,0.2,0.6,0.5v7.4c0,0.4-0.3,0.6-0.6,0.7h-5.8c-0.4,0-0.6-0.3-0.6-0.7C71.5,31.3,71.5,31.1,71.6,31L71.6,31z M67.9,72 c0,0.3-0.3,0.6-0.6,0.6h-7c-0.3,0-0.6-0.3-0.6-0.6v-4.4c0-0.3,0.3-0.6,0.6-0.6h7c0.3,0,0.6,0.3,0.6,0.6V72z M67.9,64 c0,0.3-0.3,0.6-0.6,0.6h-7c-0.3,0-0.6-0.3-0.6-0.6v-4.4c0-0.3,0.3-0.6,0.6-0.6h7c0.3,0,0.6,0.3,0.6,0.6V64z M67.9,55.9 c0,0.3-0.3,0.6-0.6,0.6h-7c-0.3,0-0.6-0.3-0.6-0.6v-4.4c0-0.3,0.3-0.6,0.6-0.6h7c0.3,0,0.6,0.3,0.6,0.6V55.9z M68,38.1v9.6 c0,0.3-0.3,0.6-0.6,0.6h-7c-0.3,0-0.6-0.3-0.6-0.6v-1.2v-0.2v-0.1c0,0,0-0.1,0.1-0.1c0,0,0-0.1,0.1-0.1c0.9-1.3,4.9-6.3,6.6-8.3 l0.2-0.2c0.1-0.1,0.3-0.2,0.5-0.2c0.3,0,0.6,0.2,0.6,0.5v0.3L68,38.1L68,38.1z M78.7,72c0,0.3-0.3,0.6-0.6,0.6h-7 c-0.3,0-0.6-0.3-0.6-0.6v-4.4c0-0.3,0.3-0.6,0.6-0.6h7c0.3,0,0.6,0.3,0.6,0.6V72z M78.7,64c0,0.3-0.3,0.6-0.6,0.6h-7 c-0.3,0-0.6-0.3-0.6-0.6v-4.4c0-0.3,0.3-0.6,0.6-0.6h7c0.3,0,0.6,0.3,0.6,0.6V64z M78.7,55.9c0,0.3-0.3,0.6-0.6,0.6h-7 c-0.3,0-0.6-0.3-0.6-0.6v-4.4c0-0.3,0.3-0.6,0.6-0.6h7c0.3,0,0.6,0.3,0.6,0.6V55.9z M78.7,47.8c0,0.3-0.3,0.6-0.6,0.6h-7 c-0.3,0-0.6-0.3-0.6-0.6v-4.4c0-0.3,0.3-0.6,0.6-0.6h7c0.3,0,0.6,0.3,0.6,0.6V47.8z M78.7,39.7c0,0.3-0.3,0.6-0.6,0.6h-7 c-0.3,0-0.6-0.3-0.6-0.6v-4.4c0-0.3,0.3-0.6,0.6-0.6h7c0.3,0,0.6,0.3,0.6,0.6V39.7z" fill="#000000"/></g></svg>