<?xml version="1.0" encoding="UTF-8" standalone="no"?><svg xmlns="http://www.w3.org/2000/svg" xmlns:xlink="http://www.w3.org/1999/xlink" fill="#000000" height="82" preserveAspectRatio="xMidYMid meet" version="1" viewBox="0.0 0.0 82.1 82.0" width="82.1" zoomAndPan="magnify"><g id="change1_1"><path d="M41.2,82c1.1,0,1.9-0.9,1.9-1.8V69.9c0-0.9-0.9-1.8-1.9-1.8c-1.1,0-1.9,1-1.9,1.8v10.3 C39.3,81,40.2,82,41.2,82 M41,17.6c-13,0-23.6,10.6-23.6,23.6S28,64.8,41,64.8s23.6-10.6,23.6-23.6C64.6,28.1,54.1,17.6,41,17.6 M39.3,26.9c0-0.8,0.8-1.6,1.8-1.6s1.7,0.9,1.7,1.6V35c0,0.8-0.8,1.6-1.7,1.6c-1,0-1.8-0.9-1.8-1.6V26.9z M41,53.2 c-6.8,0-12.3-5.5-12.3-12.3c0-5.5,3.6-10.2,8.6-11.7v4.6c-2.6,1.3-4.4,4-4.4,7.1c0,4.4,3.6,8,8,8s8-3.6,8-8c0-3.1-1.8-5.8-4.4-7.2 v-4.6c5,1.5,8.6,6.2,8.6,11.7C53.3,47.7,47.8,53.2,41,53.2 M14,40.9c0-1.1-0.9-1.9-1.8-1.9H1.8C0.9,39,0,39.9,0,40.9 c0,1.1,1,1.9,1.8,1.9h10.3C13,42.9,14,42,14,40.9 M82.1,40.9c0-1.1-0.9-1.9-1.8-1.9H70c-0.9,0-1.8,0.9-1.8,1.9c0,1.1,1,1.9,1.8,1.9 h10.3C81.1,42.9,82.1,42,82.1,40.9 M41,13.9c1.1,0,1.9-0.9,1.9-1.8V1.8C42.9,0.9,42,0,41,0c-1.1,0-1.9,1-1.9,1.8V12 C39.1,12.9,40,13.9,41,13.9 M17.5,27.5c0.5-0.9,0.1-2.2-0.6-2.6l-9-5.1c-0.8-0.4-2-0.2-2.5,0.8c-0.5,0.9-0.1,2.2,0.6,2.6l9,5.1 C15.7,28.7,17,28.4,17.5,27.5 M76.7,61.3c0.5-0.9,0.1-2.2-0.6-2.6l-9-5.1c-0.8-0.4-2-0.2-2.5,0.8c-0.5,0.9-0.1,2.2,0.6,2.6l9,5.1 C74.9,62.5,76.1,62.3,76.7,61.3 M54.5,17.4c0.9,0.5,2.1,0.1,2.6-0.6l5.1-9c0.4-0.8,0.2-2-0.8-2.5c-0.9-0.5-2.2-0.1-2.6,0.6l-5.1,9 C53.3,15.7,53.6,16.9,54.5,17.4 M20.6,76.6c0.9,0.5,2.1,0.1,2.6-0.6l5.1-9c0.4-0.8,0.2-2-0.8-2.5c-0.9-0.5-2.2-0.1-2.6,0.6l-5.1,9 C19.4,74.8,19.7,76,20.6,76.6 M27.5,17.5c0.9-0.5,1.2-1.8,0.8-2.5l-5.1-9c-0.4-0.8-1.7-1.2-2.6-0.6c-0.9,0.5-1.2,1.8-0.8,2.6l5.1,9 C25.4,17.6,26.6,18,27.5,17.5 M61.5,76.5c0.9-0.5,1.2-1.8,0.8-2.5l-5.1-9c-0.4-0.8-1.7-1.2-2.6-0.6c-0.9,0.5-1.2,1.8-0.8,2.6l5.1,9 C59.3,76.7,60.6,77.1,61.5,76.5 M64.5,27.4c0.5,0.9,1.8,1.2,2.5,0.8l9-5.1c0.8-0.4,1.2-1.7,0.6-2.6c-0.5-0.9-1.8-1.2-2.6-0.8 l-9,5.1C64.4,25.3,64,26.5,64.5,27.4 M5.5,61.4C6,62.3,7.3,62.6,8,62.2l9-5.1c0.8-0.4,1.2-1.7,0.6-2.6c-0.5-0.9-1.8-1.2-2.6-0.8 l-9,5.1C5.3,59.2,4.9,60.5,5.5,61.4" fill="#000000"/></g></svg>