<?xml version="1.0" encoding="UTF-8" standalone="no"?><svg xmlns="http://www.w3.org/2000/svg" xmlns:xlink="http://www.w3.org/1999/xlink" fill="#000000" height="82.2" preserveAspectRatio="xMidYMid meet" version="1" viewBox="-0.1 0.0 59.8 82.2" width="59.8" zoomAndPan="magnify"><g id="change1_1"><path d="M59.5,0.2L59.5,0.2C59.4,0.1,59.2,0,59,0H0.6C0.4,0,0.2,0.1,0.1,0.2C0,0.4-0.1,0.6,0,0.8l9.8,59.3 c0.1,0.3,0.3,0.6,0.7,0.6h12l0.8,9.7h-5.1L30,82.2l11.8-11.8h-5.1l0.8-9.6h12.2c0.3,0,0.6-0.2,0.7-0.6l9.2-59.3 C59.7,0.5,59.6,0.3,59.5,0.2z M37,47.7L37,47.7c0,0-2.7,2.7-7,2.4c-4.3,0.3-7-2.4-7-2.4c-4.4-4.4-2.8-9.8-1.3-12.6 c0.9-1.8,7.7-11.9,8.2-12.7c0.6,0.9,7.3,11,8.2,12.7C39.8,37.9,41.3,43.3,37,47.7z M55.5,12.7L55.5,12.7L55.5,12.7 C53.9,12,51.9,12.3,50,13c-7.2,2.9-12.2,4-19.8,1.6c-4.8-1.5-9.3-4.6-14.6-2.7c-3.5,1.3-6.8,2.5-10.8,2.4L2.5,2.5h54.6L55.5,12.7 C55.5,12.7,55.5,12.7,55.5,12.7z" fill="#000000"/></g></svg>