<?xml version="1.0" encoding="UTF-8" standalone="no"?><svg xmlns="http://www.w3.org/2000/svg" xmlns:xlink="http://www.w3.org/1999/xlink" fill="#000000" height="55.2" preserveAspectRatio="xMidYMid meet" version="1" viewBox="0.0 0.0 108.5 55.2" width="108.5" zoomAndPan="magnify"><g id="change1_1"><path d="M99,6L99,6c-6.6-5.2-14.4-5.7-17.5-5.7c-1.6,0-3.1,0.1-4.2,0.4l-0.4,0.1c-4.2,1-11.1,2.6-19.2,12.7l-0.2,0.3 c-0.1,0.2-0.2,0.4-0.2,0.6s0,0.4,0.1,0.5l0.2,0.3c1.3,2.2,2.4,4.2,3.3,5.8c0.3,0.6,1.2,0.8,1.7,0.2c0.1-0.1,0.1-0.2,0.2-0.2 c7-9.7,12.5-11,16.1-11.8l0.4-0.1c0.5-0.1,1.3-0.2,2.2-0.2c1.7,0,7.5,0.3,12.1,3.9c4.1,3.2,6.1,8.3,6.1,15.2 c0,11.6-5.6,16.1-10.3,17.8c-1.8,0.7-3.7,1-5.7,1c-4.8,0-8.6-1.9-8.6-2l-0.3-0.2c-4-1.8-10.1-5.4-15.8-16.9C47.3,4.2,37.5,2,31,0.5 l-0.3-0.1C30.2,0.3,28.8,0,26.5,0c-3.8,0-11,0.7-17.2,5.7C5.1,9.1,0,15.7,0,27.7C0,35.1,1.5,39.9,5.4,45c0.7,1,7.5,9.7,20.5,9.7 c1.9,0,3.9-0.2,5.9-0.6c2.4-0.5,6-1.6,10.1-4.6l3.4,3.1c0.4,0.3,1,0.3,1.4-0.1c0.2-0.2,0.3-0.4,0.2-0.6l2.6-16.3v-0.2 c0-0.3-0.1-0.5-0.3-0.7c-0.2-0.2-0.4-0.3-0.7-0.3l-15.9,4.4h-0.3c-0.2,0-0.4,0.1-0.5,0.3c-0.2,0.2-0.3,0.5-0.3,0.7 c0,0.3,0.1,0.5,0.3,0.7l3.3,3c-1.7,1.1-3.5,1.8-5.1,2.1c-1.4,0.3-2.8,0.4-4.2,0.4c-9,0-13.4-5.9-13.6-6.2l-0.1-0.1 C9.4,36.1,8.4,33,8.4,27.6c0-6.9,2-12.1,6-15.3c4.5-3.6,10.2-3.8,11.8-3.8c0.9,0,1.7,0.1,2.2,0.2l0.4,0.1C34,10,41.1,11.6,51,31.4 c5.2,10.5,11.7,17.3,19.9,20.9c1,0.5,6,2.9,12.6,2.9c3,0,6-0.5,8.8-1.6c4.8-1.8,15.9-7.9,15.9-26C108.5,16,103.3,9.4,99,6z" fill="#000000"/></g></svg>