<?xml version="1.0" encoding="UTF-8" standalone="no"?><svg xmlns="http://www.w3.org/2000/svg" xmlns:xlink="http://www.w3.org/1999/xlink" fill="#000000" height="60.8" preserveAspectRatio="xMidYMid meet" version="1" viewBox="0.0 0.0 119.2 60.8" width="119.2" zoomAndPan="magnify"><g id="change1_1"><path d="M118.7,29.7L118.7,29.7C114.5,23.8,95.3,0,59.6,0S4.8,23.7,0.5,29.7C0.3,30,0.2,30.2,0,30.4 c0.1,0.2,0.3,0.4,0.5,0.7C4.7,37,23.9,60.8,59.6,60.8c35.6,0,54.8-23.7,59.1-29.7c0.2-0.3,0.3-0.5,0.5-0.7 C119,30.2,118.9,29.9,118.7,29.7z M39.7,15L39.7,15c0.3-0.5,1.4-1.8,1.5-2c0.3-0.4,0.8-0.4,1.2-0.5c0.4-0.1,0.9,0.1,0.9,0.4 c0.1,0.3-0.1,1.4-0.3,1.6c-0.5,0.5-1.9,1.3-2.6,1.2C39.9,15.6,39.6,15.2,39.7,15z M38.5,17.5c0.1-0.1,0.1-0.1,0.1-0.2 c0.4-0.5,1.3-0.6,2-0.7c0.6-0.1,1.4,0.2,1.5,0.6c0.1,0.4-1.5,1.2-1.9,1.4c-0.9,0.8-2.2,2.4-3,2.6c-0.3,0.1-0.5,0-0.6-0.1 C37.1,20,37.8,18.7,38.5,17.5z M51.8,44.9c-0.5,1.9-1,2.6-1.5,3.2c-0.5,0.6-2.3,1.4-3.4,1.3c-1.1-0.1-1.3-3.1-1.3-4.6 c0-0.5-0.8,1.1-1.2-2.2c-0.3-2.1-1.6,0.2-1.7-1.2c-0.1-1.4-0.8-1.1-1.5-2c-0.7-0.9-1.6,0.1-2.5,0.5c-1,0.4-0.6,0.7-1.9,0.2h-0.1 c-1.3-3-2-6.2-2-9.7c0-0.8,0-1.7,0.1-2.5c0-0.1,0.1-0.2,0.2-0.2c1.3-1.6,1.3-1.9,1.3-1.9l1.5-0.5c0,0,2.3,0.4,4.1,1 c1.4,0.5,3.7,1.8,5,1.2c1-0.4,1.7-0.9,1.6-1.7c-0.1-1-0.9-1.2-1.8-0.6c-0.4,0.2-1.1-1.5-1.7-1.4s0.7,2.1,0.2,2.1 c-0.5,0.1-1.5-2.1-1.7-2.4c-0.2-0.3-0.9-1.2-1.6-0.5c-1.5,1.4-3.8,1.3-4.3,1.7c-1.5,1.1-1.8-0.4-1.8-1.2c0.1-0.2,0.1-0.4,0.2-0.6 c0.5-0.5,2.2-0.7,2.8-0.3c0.6,0.4,1.1-0.1,1.4-0.4c0.3-0.3,0.2-0.7,0-1c-0.2-0.3,0.3-0.6,0.7-0.7c0.3-0.1,1.4-0.9,1.9-1.1 c0.4-0.3,2.7-0.5,3.8,0c1,0.5,2,0.1,2.5-0.5c0.6-0.8,1.4-1.3,1.8-1.5c0.4-0.2-0.9-1.3-1.9-0.1c-1,1.3-1.5,1.4-2,1.4 s-3.3-0.7-3.7-1.6c-0.3-0.9,0.9-1.6,2-2.1c1.1-0.5,4-0.5,4.7-0.7c1.5-0.3,3.4-1.1,4.4-0.4c1,0.6-4,1.8-2.4,2.7 c0.6,0.3,3.2-1.5,4.1-2c2.1-1.1-2.1-1.5-1.5-3.7c0.6-2.5-5.2-1.6-8-1.3C50.5,7.1,55,5.7,60,5.7c11.7,0,21.5,8.1,24.1,19 c0,0.5-0.1,0.9-0.1,1.1c-0.2,0.9-1.9,1.7-2.9,0.2c-0.3-0.4-1.3-1.4-1.3,0.4c0,1.7,1.7,1.9,0.1,2.9c-1.6,1-1.9,0.8-2.6,1 c-0.7,0.3-1.4,2-1.3,3c0.2,0.9,2.4,3.5,0.8,3.4c-0.4,0-3.4-2.1-3.9-3.4c-0.5-1.4-1.1-2.7-1.5-3.8c-0.4-1-1.5-1.3-2.3-0.7 c-0.9,0.6,0.2,1.2-0.4,2.5c-0.6,1.3-1.1,2.4-2,1.4c-2.4-2.8-5.9-1.4-6.5-4.5c-0.3-1.7-1.7-1.5-2.9-2.5c-1.2-0.9-1.9-1.5-2.1-0.8 c-0.2,0.6,3.8,3.8,4.1,4.6c0.4,1.2-1.2,2.3-2.4,2.5c-1.2,0.3-1.7-0.7-2.9-1.9c-1.2-1.2-1.7-2.1-1.7-1.1c-0.1,1.4,1.1,3.4,2.3,4.1 c1,0.6,2.1,0.9,1.8,2c-0.3,1,0,0.4-1.1,1.6c-1.1,1.1-1.3,1.5-1.3,3c0.1,1.6-0.3,1.6-0.6,2.9C52.9,44.1,52.3,43,51.8,44.9z M78.5,35 c0.8-0.1,2.1,1.1,1.6,1.5s-1.7,0.3-2.4-0.2C77.1,35.8,78.1,35,78.5,35z M77.4,34.2c-0.3-0.1-0.5-0.4-0.7-1s0.3-1,0.8-0.7 s1.2,1,1.2,1.4C78.7,34.4,77.7,34.4,77.4,34.2z M66.4,34.2c-0.5,0.4-1.7,0.3-2.4-0.2c-0.6-0.5,0.4-1.3,0.8-1.3 C65.7,32.6,66.9,33.8,66.4,34.2z M56.3,39.1c-0.3,0.6-1.3,4.7-1.9,4.2s0.3-4.8,0.4-5.2C55.8,36.4,57.9,36.5,56.3,39.1z M59.7,55.3 L59.7,55.3c-2.4,0-4.8-0.4-7-1c-0.3-0.3-0.5-0.7-0.3-1.2c0.8-2,3.1-2.8,4.9-3c4-0.4,9.3,2.6,10.2,2.1c0.8-0.5,2.5-2.7,5-2.6 c1.7,0.1,1.7,0.4,2.3,0.6C70.6,53.4,65.3,55.3,59.7,55.3z M77.2,48.1L77.2,48.1c-0.2-0.1-0.5-0.2-0.8-0.3c-1.4-0.7-1.2,0.4-1.9,0.2 s0.8-1.8-1.3-0.5c-2,1.3-1.5-0.2-2.3-2.4c-0.9-2.2,1-4.7,2.6-5.3c2.2-0.8,3.5-0.9,4.5-1.2c3-0.7,3.6-2.5,4.2-1.4l0.3,0.6 c0.2,0.3,0.4,1,0.4,1.6C81.6,42.7,79.7,45.6,77.2,48.1z M84.6,30.4c-0.1,1.8-0.3,3.5-0.6,5.2v0c-0.7-0.2-3.5-4-1.2-6.6 c0.4-0.4-0.7-1.6-0.4-1.7c1.2-0.1,1.8,0.7,2.2,1.7V30.4z" fill="#000000"/></g></svg>