<?xml version="1.0" encoding="UTF-8" standalone="no"?><svg xmlns="http://www.w3.org/2000/svg" xmlns:xlink="http://www.w3.org/1999/xlink" fill="#000000" height="77.6" preserveAspectRatio="xMidYMid meet" version="1" viewBox="0.0 -0.0 78.9 77.6" width="78.9" zoomAndPan="magnify"><g id="change1_1"><path d="M26.4,45c0.2,0,0.4,0.2,0.4,0.4v11.7c0,0.2-0.2,0.4-0.4,0.4h-4.7c-0.2,0-0.4-0.2-0.4-0.4V45.4 c0-0.2,0.2-0.4,0.4-0.4H26.4z M78.5,62.5H0.4c-0.2,0-0.4,0.2-0.4,0.4v4.8c0,0.2,0.2,0.4,0.4,0.4h78.1c0.2,0,0.4-0.2,0.4-0.4v-4.8 C78.9,62.7,78.7,62.5,78.5,62.5 M78.5,72H0.4C0.2,72,0,72.2,0,72.4v4.8c0,0.2,0.2,0.4,0.4,0.4h78.1c0.2,0,0.4-0.2,0.4-0.4v-4.8 C78.9,72.2,78.7,72,78.5,72 M63.6,32.1c-1-0.8-3.6-2.5-6.8-2.5c-2.3,0-4.4,0.9-6.3,2.7c-0.1,0.1-0.2,0.3-0.2,0.5v0.4 c0,0.2,0.1,0.4,0.2,0.5c0.2,0.1,0.3,0.2,0.6,0.1h0.1c0.1-0.1,0.3-0.1,0.4-0.2c0.4-0.3,1.5-0.7,3.1-0.7c1.7,0,4.9,0.4,8.1,3.4 l0.1,0.1c0.2,0.2,0.4,0.3,0.7,0.3c0.2,0,0.5-0.1,0.7-0.3l0.1-0.1c3.2-2.9,6.4-3.4,8.1-3.4c1.6,0,2.7,0.4,3.1,0.7 c0.1,0.1,0.2,0.2,0.4,0.3c0.1,0,0.3,0.1,0.5,0c0.3-0.1,0.5-0.3,0.5-0.6v-0.4c0-0.2-0.1-0.4-0.2-0.5c-1.9-1.8-4-2.7-6.4-2.7 C67.2,29.5,64.6,31.3,63.6,32.1 M58.8,0.9c-0.2,0.1-0.3,0.2-0.3,0.4l-0.1,0.3c-0.1,0.2,0,0.4,0.1,0.6c0.1,0.2,0.3,0.3,0.5,0.3h0.1 c0.1,0,0.3,0,0.4-0.1c0.1,0,0.2-0.1,0.5-0.1s3.5,0.1,5.6,3.6V6c0.1,0.2,0.3,0.3,0.5,0.4h0.2c0.1,0,0.3,0,0.4-0.1h0.1 c1.1-0.6,2.3-0.9,3.5-0.9c2,0,3.3,0.8,3.6,1.1l0.3,0.3c0.1,0,0.2,0.1,0.3,0.1h0.2c0.1,0,0.2,0,0.3-0.1c0.2-0.1,0.3-0.2,0.3-0.4 l0.1-0.2V6c0-0.1,0-0.2-0.1-0.3c-1.5-2.6-3.7-3.2-5.3-3.2c-1.2,0-2.2,0.3-2.8,0.5c-0.7-1-2.5-3-5.3-3C60.8,0.2,59.8,0.4,58.8,0.9 M42.3,13v0.4c0,0.2,0.1,0.4,0.3,0.5S43,14,43.1,14h0.1c0.1-0.1,0.2-0.1,0.3-0.2c0.3-0.2,1.4-0.7,3-0.7c1.5,0,3.8,0.4,6.2,2.3 l0.1,0.1c0.2,0.1,0.4,0.2,0.6,0.2h0.1c0.2,0,0.5-0.1,0.6-0.3l0.1-0.1c2.6-2.8,5.4-3.2,6.9-3.2c1,0,1.8,0.2,2,0.4 c0.1,0.1,0.2,0.2,0.4,0.2H64c0.3-0.1,0.5-0.4,0.4-0.7v-0.3c0-0.2-0.1-0.3-0.2-0.5c-1.6-1.3-3.2-2-5-2c-2.7,0-4.9,1.6-5.8,2.4 c-0.8-0.6-2.8-1.7-5.2-1.7c-2.1,0-3.9,0.9-5.5,2.6C42.3,12.6,42.3,12.8,42.3,13 M2.7,19.2c0-4.7,3.8-8.5,8.5-8.5h0.5 c0.4-5.9,5.4-10.6,11.4-10.6c6.3,0,11.5,5.1,11.5,11.5c0,1.8-0.4,3.5-1.2,5c5.7,1.3,10,6.4,10,12.5c0,7.1-5.7,12.8-12.8,12.8 c-0.5,0-17.1-0.1-17.1-0.1c-5,0-9.1-4.1-9.1-9.1c0-2.4,0.9-4.6,2.5-6.2C4.5,25.1,2.7,22.4,2.7,19.2L2.7,19.2z" fill="#000000"/></g></svg>